# xmcd
#
# Track frame offsets:
#	150
#	16560
#	37819
#	44740
#	59712
#	72721
#	84630
#	99877
#	117323
#	135082
#	149590
#	164705
#	179147
#	194570
#	209525
#	225745
#	234516
#	249771
#	264797
#	279192
#	294451
#
# Disc length: 4163 seconds
#
# Revision: 0
# Processed by: cddbd v1.5.2PL0 Copyright (c) Steve Scherf et al.
# Submitted via: EasyCDDAExtractor 16.0.6.1
#
DISCID=35104115
DTITLE=Συλλογικός δίσκος - Λαϊκοί συνθέτες Α1-Καλδάρας Απόστολος
DYEAR=2010
DGENRE=Λαϊκή
TTITLE0=Τσαλιγοπούλου Ελένη - Ένα τραγούδι απ' τ' Αλγέρι
TTITLE1=Καζαντζίδης Στέλιος - Είμ' ένα κορμί χαμένο [Κ. Βίρβος]
TTITLE2=Μοσχολιού Βίκυ - Δεν ξέρω πόσο σ' αγαπώ [Χ. Αργυρόπουλος]
TTITLE3=Αγγελόπουλος Μανώλης - Καλή τύχη
TTITLE4=Παπαδοπούλου Πίτσα - Αλλοτινές μου εποχές [Ρ. Μανέλη]
TTITLE5=Ζαγοραίος Σπύρος - Λίγο λίγο θα με συνηθίσεις [Ε. Παπαγιαννοπούλου]
TTITLE6=Μακρής Ηλίας - Ας παν στην ευχή τα παλιά
TTITLE7=Περπινιάδης Βαγγέλης - Ανεβαίνω σκαλοπάτια
TTITLE8=Τσαλιγοπούλου Ελένη - Συ μού χάραξες πορεία
TTITLE9=Παπαζήσης Μιχάλης - Άμα θες να κλάψεις, κλάψε [Γ. Σαμολαδάς]
TTITLE10=Κύπριος Στράτος - Μην περιμένεις πια
TTITLE11=Μπάσης Δημήτρης - Όποια και νά 'σαι [Γ. Σαμολαδάς]
TTITLE12=Πουλόπουλος Γιάννης - Νύχτωσε χωρίς φεγγάρι
TTITLE13=Αγγελόπουλος Μανώλης - Όση γλύκα έχουν τα χείλη σου
TTITLE14=Ντάλμα Ρένα - Μού σπάσανε τον μπαγλαμά [Ε. Παπαγιαννοπούλου]
TTITLE15=Μακρής Ηλίας - Όσο αξίζεις εσύ
TTITLE16=Μπέλλου Σωτηρία - Σ' ένα βράχο φαγωμένο
TTITLE17=Ανδρεάτος Γεράσιμος - Περιφρόνα με γλυκειά μου [Γ. Σαμολαδάς]
TTITLE18=Καζαντζίδης Στέλιος - Στο τραπέζι που τα πίνω [Ε. Παπαγιαννοπούλου]
TTITLE19=Αγγελόπουλος Μανώλης - Ρίξε στο γυαλί φαρμάκι [Ε. Παπαγιαννοπούλου]
TTITLE20=Τσαλιγοπούλου Ελένη - Φέρε μιά κούπα με κρασί [Χ. Βασιλειάδης]
EXTD=
EXTT0=
EXTT1=
EXTT2=
EXTT3=
EXTT4=
EXTT5=
EXTT6=
EXTT7=
EXTT8=
EXTT9=
EXTT10=
EXTT11=
EXTT12=
EXTT13=
EXTT14=
EXTT15=
EXTT16=
EXTT17=
EXTT18=
EXTT19=
EXTT20=
PLAYORDER=
